<?xml version="1.0" encoding="us-ascii" standalone="no"?><svg xmlns="http://www.w3.org/2000/svg" xmlns:xlink="http://www.w3.org/1999/xlink" contentStyleType="text/css" height="611px" preserveAspectRatio="none" style="width:771px;height:611px;background:#FFFFFF;" version="1.1" viewBox="0 0 771 611" width="771px" zoomAndPan="magnify"><defs/><g><rect fill="#ADD8E6" height="599.7617" style="stroke:#181818;stroke-width:0.5;" width="367" x="16" y="6"/><text fill="#000000" font-family="sans-serif" font-size="13" font-weight="bold" lengthAdjust="spacing" textLength="76" x="161.5" y="19.4951">ProtoServer</text><rect fill="#FFFFFF" height="312.1641" style="stroke:#181818;stroke-width:1.0;" width="10" x="58.5" y="215.6777"/><rect fill="none" height="139.7578" style="stroke:#000000;stroke-width:1.5;" width="755.5" x="10" y="380.084"/><line style="stroke:#181818;stroke-width:0.5;stroke-dasharray:5.0,5.0;" x1="63" x2="63" y1="92.2715" y2="536.8418"/><line style="stroke:#181818;stroke-width:0.5;stroke-dasharray:5.0,5.0;" x1="179" x2="179" y1="92.2715" y2="536.8418"/><line style="stroke:#181818;stroke-width:0.5;stroke-dasharray:5.0,5.0;" x1="315" x2="315" y1="92.2715" y2="536.8418"/><line style="stroke:#181818;stroke-width:0.5;stroke-dasharray:5.0,5.0;" x1="662.5" x2="662.5" y1="92.2715" y2="536.8418"/><line style="stroke:#181818;stroke-width:0.5;stroke-dasharray:5.0,5.0;" x1="726.5" x2="726.5" y1="92.2715" y2="536.8418"/><rect fill="#E2E2F0" height="64.9199" rx="2.5" ry="2.5" style="stroke:#181818;stroke-width:0.5;" width="87" x="20" y="26.3516"/><text fill="#000000" font-family="sans-serif" font-size="18" font-weight="bold" lengthAdjust="spacing" textLength="73" x="27" y="52.0371">Protocol</text><line style="stroke:#181818;stroke-width:1.0;" x1="20" x2="107" y1="60.9922" y2="60.9922"/><text fill="#000000" font-family="monospace" font-size="14" lengthAdjust="spacing" textLength="24" x="51.5" y="80.0674">CAN</text><rect fill="#E2E2F0" height="64.9199" rx="2.5" ry="2.5" style="stroke:#181818;stroke-width:0.5;" width="87" x="20" y="535.8418"/><text fill="#000000" font-family="sans-serif" font-size="18" font-weight="bold" lengthAdjust="spacing" textLength="73" x="27" y="561.5273">Protocol</text><line style="stroke:#181818;stroke-width:1.0;" x1="20" x2="107" y1="570.4824" y2="570.4824"/><text fill="#000000" font-family="monospace" font-size="14" lengthAdjust="spacing" textLength="24" x="51.5" y="589.5576">CAN</text><rect fill="#E2E2F0" height="31.6094" rx="2.5" ry="2.5" style="stroke:#181818;stroke-width:0.5;" width="125" x="117" y="59.6621"/><text fill="#000000" font-family="sans-serif" font-size="14" lengthAdjust="spacing" textLength="111" x="124" y="81.1953">ProtocolPublisher</text><rect fill="#E2E2F0" height="31.6094" rx="2.5" ry="2.5" style="stroke:#181818;stroke-width:0.5;" width="125" x="117" y="535.8418"/><text fill="#000000" font-family="sans-serif" font-size="14" lengthAdjust="spacing" textLength="111" x="124" y="557.375">ProtocolPublisher</text><rect fill="#E2E2F0" height="31.6094" rx="2.5" ry="2.5" style="stroke:#181818;stroke-width:0.5;" width="127" x="252" y="59.6621"/><text fill="#000000" font-family="sans-serif" font-size="14" lengthAdjust="spacing" textLength="113" x="259" y="81.1953">CommandHandler</text><rect fill="#E2E2F0" height="31.6094" rx="2.5" ry="2.5" style="stroke:#181818;stroke-width:0.5;" width="127" x="252" y="535.8418"/><text fill="#000000" font-family="sans-serif" font-size="14" lengthAdjust="spacing" textLength="113" x="259" y="557.375">CommandHandler</text><rect fill="#E2E2F0" height="31.6094" rx="2.5" ry="2.5" style="stroke:#181818;stroke-width:0.5;" width="50" x="637.5" y="59.6621"/><text fill="#000000" font-family="sans-serif" font-size="14" lengthAdjust="spacing" textLength="36" x="644.5" y="81.1953">Client</text><rect fill="#E2E2F0" height="31.6094" rx="2.5" ry="2.5" style="stroke:#181818;stroke-width:0.5;" width="50" x="637.5" y="535.8418"/><text fill="#000000" font-family="sans-serif" font-size="14" lengthAdjust="spacing" textLength="36" x="644.5" y="557.375">Client</text><rect fill="#E2E2F0" height="31.6094" rx="2.5" ry="2.5" style="stroke:#181818;stroke-width:0.5;" width="58" x="697.5" y="59.6621"/><text fill="#000000" font-family="sans-serif" font-size="14" lengthAdjust="spacing" textLength="44" x="704.5" y="81.1953">Client2</text><rect fill="#E2E2F0" height="31.6094" rx="2.5" ry="2.5" style="stroke:#181818;stroke-width:0.5;" width="58" x="697.5" y="535.8418"/><text fill="#000000" font-family="sans-serif" font-size="14" lengthAdjust="spacing" textLength="44" x="704.5" y="557.375">Client2</text><rect fill="#FFFFFF" height="312.1641" style="stroke:#181818;stroke-width:1.0;" width="10" x="58.5" y="215.6777"/><polygon fill="#181818" points="74.5,120.623,64.5,124.623,74.5,128.623,70.5,124.623" style="stroke:#181818;stroke-width:1.0;"/><line style="stroke:#181818;stroke-width:1.0;" x1="68.5" x2="178.5" y1="124.623" y2="124.623"/><text fill="#000000" font-family="sans-serif" font-size="13" lengthAdjust="spacing" textLength="45" x="80.5" y="119.7666">getData</text><polygon fill="#181818" points="167.5,150.9746,177.5,154.9746,167.5,158.9746,171.5,154.9746" style="stroke:#181818;stroke-width:1.0;"/><line style="stroke:#181818;stroke-width:1.0;stroke-dasharray:2.0,2.0;" x1="63.5" x2="173.5" y1="154.9746" y2="154.9746"/><text fill="#000000" font-family="sans-serif" font-size="13" lengthAdjust="spacing" textLength="80" x="70.5" y="150.1182">notConnected</text><polygon fill="#181818" points="326.5,181.3262,316.5,185.3262,326.5,189.3262,322.5,185.3262" style="stroke:#181818;stroke-width:1.0;"/><line style="stroke:#181818;stroke-width:1.0;" x1="320.5" x2="661.5" y1="185.3262" y2="185.3262"/><text fill="#000000" font-family="sans-serif" font-size="13" lengthAdjust="spacing" textLength="323" x="332.5" y="180.4697">Command [connect, CAN, {Channel:1, BaudRate:250k}]</text><polygon fill="#181818" points="79.5,211.6777,69.5,215.6777,79.5,219.6777,75.5,215.6777" style="stroke:#181818;stroke-width:1.0;"/><line style="stroke:#181818;stroke-width:1.0;" x1="73.5" x2="314.5" y1="215.6777" y2="215.6777"/><text fill="#000000" font-family="sans-serif" font-size="13" lengthAdjust="spacing" textLength="46" x="85.5" y="210.8213">connect</text><polygon fill="#181818" points="303.5,225.6777,313.5,229.6777,303.5,233.6777,307.5,229.6777" style="stroke:#181818;stroke-width:1.0;"/><line style="stroke:#181818;stroke-width:1.0;stroke-dasharray:2.0,2.0;" x1="68.5" x2="309.5" y1="229.6777" y2="229.6777"/><polygon fill="#181818" points="650.5,256.0293,660.5,260.0293,650.5,264.0293,654.5,260.0293" style="stroke:#181818;stroke-width:1.0;"/><line style="stroke:#181818;stroke-width:1.0;" x1="315.5" x2="656.5" y1="260.0293" y2="260.0293"/><text fill="#000000" font-family="sans-serif" font-size="13" lengthAdjust="spacing" textLength="123" x="322.5" y="255.1729">CommandReply [OK]</text><polygon fill="#181818" points="326.5,286.3809,316.5,290.3809,326.5,294.3809,322.5,290.3809" style="stroke:#181818;stroke-width:1.0;"/><line style="stroke:#181818;stroke-width:1.0;" x1="320.5" x2="725.5" y1="290.3809" y2="290.3809"/><text fill="#000000" font-family="sans-serif" font-size="13" lengthAdjust="spacing" textLength="244" x="332.5" y="285.5244">Command [send, CAN, {SomeCanFrame}]</text><polygon fill="#181818" points="79.5,316.7324,69.5,320.7324,79.5,324.7324,75.5,320.7324" style="stroke:#181818;stroke-width:1.0;"/><line style="stroke:#181818;stroke-width:1.0;" x1="73.5" x2="314.5" y1="320.7324" y2="320.7324"/><text fill="#000000" font-family="sans-serif" font-size="13" lengthAdjust="spacing" textLength="28" x="85.5" y="315.876">send</text><polygon fill="#181818" points="303.5,330.7324,313.5,334.7324,303.5,338.7324,307.5,334.7324" style="stroke:#181818;stroke-width:1.0;"/><line style="stroke:#181818;stroke-width:1.0;stroke-dasharray:2.0,2.0;" x1="68.5" x2="309.5" y1="334.7324" y2="334.7324"/><polygon fill="#181818" points="714.5,361.084,724.5,365.084,714.5,369.084,718.5,365.084" style="stroke:#181818;stroke-width:1.0;"/><line style="stroke:#181818;stroke-width:1.0;" x1="315.5" x2="720.5" y1="365.084" y2="365.084"/><text fill="#000000" font-family="sans-serif" font-size="13" lengthAdjust="spacing" textLength="123" x="322.5" y="360.2275">CommandReply [OK]</text><path d="M10,380.084 L83,380.084 L83,388.4355 L73,398.4355 L10,398.4355 L10,380.084 " fill="#EEEEEE" style="stroke:#000000;stroke-width:1.5;"/><rect fill="none" height="139.7578" style="stroke:#000000;stroke-width:1.5;" width="755.5" x="10" y="380.084"/><text fill="#000000" font-family="sans-serif" font-size="13" font-weight="bold" lengthAdjust="spacing" textLength="28" x="25" y="394.5791">loop</text><text fill="#000000" font-family="sans-serif" font-size="11" font-weight="bold" lengthAdjust="spacing" textLength="162" x="98" y="393.5029">[until Proto1 is disconnected]</text><polygon fill="#181818" points="79.5,416.7871,69.5,420.7871,79.5,424.7871,75.5,420.7871" style="stroke:#181818;stroke-width:1.0;"/><line style="stroke:#181818;stroke-width:1.0;" x1="73.5" x2="178.5" y1="420.7871" y2="420.7871"/><text fill="#000000" font-family="sans-serif" font-size="13" lengthAdjust="spacing" textLength="45" x="85.5" y="415.9307">getData</text><polygon fill="#181818" points="167.5,447.1387,177.5,451.1387,167.5,455.1387,171.5,451.1387" style="stroke:#181818;stroke-width:1.0;"/><line style="stroke:#181818;stroke-width:1.0;stroke-dasharray:2.0,2.0;" x1="68.5" x2="173.5" y1="451.1387" y2="451.1387"/><text fill="#000000" font-family="sans-serif" font-size="13" lengthAdjust="spacing" textLength="33" x="75.5" y="446.2822">Reply</text><polygon fill="#181818" points="650.5,477.4902,660.5,481.4902,650.5,485.4902,654.5,481.4902" style="stroke:#181818;stroke-width:1.0;"/><line style="stroke:#181818;stroke-width:1.0;" x1="179.5" x2="656.5" y1="481.4902" y2="481.4902"/><text fill="#000000" font-family="sans-serif" font-size="13" lengthAdjust="spacing" textLength="41" x="186.5" y="476.6338">publish</text><polygon fill="#181818" points="714.5,507.8418,724.5,511.8418,714.5,515.8418,718.5,511.8418" style="stroke:#181818;stroke-width:1.0;"/><line style="stroke:#181818;stroke-width:1.0;" x1="179.5" x2="720.5" y1="511.8418" y2="511.8418"/><text fill="#000000" font-family="sans-serif" font-size="13" lengthAdjust="spacing" textLength="41" x="186.5" y="506.9854">publish</text><!--SRC=[ZLBVQuCm47xFNt6uLuKfx4LOONMCmSPMsaVn8SQZXiL4D9QEiVzzKLEhgvO60hcxxxvyzoDLHt0sbT9gXzK1AmVktla-rslH824bhJHdlAHIGmVo8IPWpcDdCIKwopEdUpXEzFJXE2IPIJNWJPCANkTOJQAHAWegirTpXGcXp21Lnob393XAFUCAo0Mvjx9IGzYZVgQQzXZViv4ns82aqf6I4fd6ZFIitcegog2i0sBMOrqmfRhm4-NKs2BqNLZJ9jjIZM7mSF_rcv0fnqYMfI24KARvmQJOxfw5_ll_WglNUTQrnL9yG_pvbjWIWcirrAR9fm9sgi28ofUA5hWeEeGsPLdUWhvWLg1GgeH6QYvEIyLho7ZDXYcqktJBN0VSqcoxNvVeXXwMlUywBXW1snrjgp0J_0C0]--></g></svg>